<svg xmlns="http://www.w3.org/2000/svg" width="2600" height="1500" viewBox="0 0 2600 1500">
  <defs>
    <linearGradient id="page" x1="0" y1="0" x2="1" y2="1">
      <stop offset="0" stop-color="#f9fbff"/>
      <stop offset="1" stop-color="#edf3fa"/>
    </linearGradient>
    <linearGradient id="pcb" x1="0" y1="0" x2="1" y2="1">
      <stop offset="0" stop-color="#1f4b3e"/>
      <stop offset="1" stop-color="#0d2b24"/>
    </linearGradient>
    <linearGradient id="relayPcb" x1="0" y1="0" x2="1" y2="1">
      <stop offset="0" stop-color="#ef6a62"/>
      <stop offset="1" stop-color="#c43131"/>
    </linearGradient>
    <linearGradient id="relayBlue" x1="0" y1="0" x2="0" y2="1">
      <stop offset="0" stop-color="#58c8ff"/>
      <stop offset="1" stop-color="#168bd1"/>
    </linearGradient>
    <linearGradient id="metal" x1="0" y1="0" x2="1" y2="1">
      <stop offset="0" stop-color="#f8fafc"/>
      <stop offset=".52" stop-color="#c2ccd8"/>
      <stop offset="1" stop-color="#eef2f7"/>
    </linearGradient>
    <filter id="shadow" x="-20%" y="-20%" width="140%" height="140%">
      <feDropShadow dx="0" dy="14" stdDeviation="16" flood-color="#142033" flood-opacity=".15"/>
    </filter>
    <style>
      .title { font: 800 54px "Microsoft YaHei", "Noto Sans CJK SC", Arial, sans-serif; fill:#111827; }
      .subtitle { font: 400 25px "Microsoft YaHei", "Noto Sans CJK SC", Arial, sans-serif; fill:#334155; }
      .h { font: 800 31px "Microsoft YaHei", "Noto Sans CJK SC", Arial, sans-serif; fill:#0f172a; }
      .hWhite { font: 800 30px "Microsoft YaHei", "Noto Sans CJK SC", Arial, sans-serif; fill:#ffffff; }
      .label { font: 650 24px "Microsoft YaHei", "Noto Sans CJK SC", Arial, sans-serif; fill:#172033; }
      .small { font: 400 21px "Microsoft YaHei", "Noto Sans CJK SC", Arial, sans-serif; fill:#44546a; }
      .tiny { font: 500 18px "Microsoft YaHei", "Noto Sans CJK SC", Arial, sans-serif; fill:#475569; }
      .pin { font: 800 20px "Microsoft YaHei", Arial, sans-serif; fill:#0f172a; }
      .signal { fill:none; stroke:#f4c430; stroke-width:12; stroke-linecap:round; stroke-linejoin:round; }
      .gnd { fill:none; stroke:#111827; stroke-width:12; stroke-linecap:round; stroke-linejoin:round; }
      .usbGnd { fill:none; stroke:#475569; stroke-width:10; stroke-linecap:round; stroke-linejoin:round; stroke-dasharray:18 14; }
      .plus { fill:none; stroke:#e11d27; stroke-width:14; stroke-linecap:round; stroke-linejoin:round; }
      .brakePlus { fill:none; stroke:#f97316; stroke-width:14; stroke-linecap:round; stroke-linejoin:round; }
      .stepper { fill:none; stroke:#22c55e; stroke-width:8; stroke-linecap:round; stroke-linejoin:round; stroke-dasharray:2 16; }
      .wireLabel { fill:#ffffff; stroke-width:4; }
    </style>
  </defs>

  <rect width="2600" height="1500" fill="url(#page)"/>

  <text x="80" y="84" class="title">Voron 2.4 四Z刹车步进接线图</text>
  <text x="80" y="126" class="subtitle">按红框端口接线：M3B-2A 同时给继电器 DC+ 与 S，USB 口 GND 接继电器 DC-；24V 电源只走刹车负载回路。</text>

  <g transform="translate(1590 54)">
    <rect x="0" y="0" width="910" height="126" rx="18" fill="#ffffff" stroke="#cbd5e1" stroke-width="4"/>
    <path d="M 26 26 H 116" class="signal"/><text x="135" y="33" class="tiny">M3B-2A 信号/供电</text>
    <path d="M 355 26 H 445" class="plus"/><text x="465" y="33" class="tiny">24V+ 到继电器 COM</text>
    <path d="M 26 62 H 116" class="brakePlus"/><text x="135" y="69" class="tiny">继电器 NO 到刹车 +</text>
    <path d="M 355 62 H 445" class="gnd"/><text x="465" y="69" class="tiny">24V V- / 0V 到刹车 -</text>
    <path d="M 26 98 H 116" class="usbGnd"/><text x="135" y="105" class="tiny">USB GND 仅接继电器 DC-，不走刹车电流</text>
  </g>

  <!-- Manta board -->
  <g transform="translate(80 220)" filter="url(#shadow)">
    <rect x="0" y="0" width="850" height="650" rx="28" fill="#102d26"/>
    <rect x="28" y="32" width="794" height="590" rx="20" fill="url(#pcb)" stroke="#08221c" stroke-width="5"/>
    <text x="58" y="86" class="hWhite">BIGTREETECH Manta M8P</text>
    <text x="58" y="121" class="small" style="fill:#d9fbe8;">仿真下位机，红框为本图使用端口</text>

    <g transform="translate(68 165)">
      <g opacity=".86">
        <rect x="0" y="0" width="86" height="76" rx="9" fill="#b51d2a" stroke="#74121a" stroke-width="3"/>
        <rect x="12" y="13" width="18" height="50" rx="3" fill="#f8fafc"/>
        <rect x="35" y="13" width="18" height="50" rx="3" fill="#f8fafc"/>
        <rect x="58" y="13" width="18" height="50" rx="3" fill="#f8fafc"/>
        <text x="13" y="105" class="tiny" style="fill:#b5c9c1;">Motor1</text>
      </g>
      <g transform="translate(118 0)" opacity=".86">
        <rect x="0" y="0" width="86" height="76" rx="9" fill="#b51d2a" stroke="#74121a" stroke-width="3"/>
        <rect x="12" y="13" width="18" height="50" rx="3" fill="#f8fafc"/>
        <rect x="35" y="13" width="18" height="50" rx="3" fill="#f8fafc"/>
        <rect x="58" y="13" width="18" height="50" rx="3" fill="#f8fafc"/>
        <text x="13" y="105" class="tiny" style="fill:#b5c9c1;">Motor2</text>
      </g>
      <g transform="translate(250 -24)">
        <rect x="-16" y="-16" width="315" height="126" rx="16" fill="none" stroke="#ef4444" stroke-width="7"/>
        <rect x="0" y="0" width="282" height="76" rx="9" fill="#b51d2a" stroke="#74121a" stroke-width="3"/>
        <rect x="16" y="13" width="48" height="50" rx="6" fill="#e2e8f0" stroke="#94a3b8" stroke-width="2"/>
        <rect x="72" y="13" width="48" height="50" rx="6" fill="#fff2a8" stroke="#ca8a04" stroke-width="5"/>
        <rect x="128" y="13" width="48" height="50" rx="6" fill="#e2e8f0" stroke="#94a3b8" stroke-width="2"/>
        <rect x="184" y="13" width="48" height="50" rx="6" fill="#e2e8f0" stroke="#94a3b8" stroke-width="2"/>
        <text x="26" y="46" class="pin">2B</text>
        <text x="82" y="46" class="pin">2A</text>
        <text x="138" y="46" class="pin">1A</text>
        <text x="194" y="46" class="pin">1B</text>
        <text x="41" y="106" class="label">Motor3 / M3B</text>
      </g>
      <g transform="translate(602 0)" opacity=".86">
        <rect x="0" y="0" width="86" height="76" rx="9" fill="#b51d2a" stroke="#74121a" stroke-width="3"/>
        <rect x="12" y="13" width="18" height="50" rx="3" fill="#f8fafc"/>
        <rect x="35" y="13" width="18" height="50" rx="3" fill="#f8fafc"/>
        <rect x="58" y="13" width="18" height="50" rx="3" fill="#f8fafc"/>
        <text x="13" y="105" class="tiny" style="fill:#b5c9c1;">Motor4</text>
      </g>
    </g>

    <g transform="translate(132 330)">
      <g>
        <rect x="0" y="0" width="76" height="112" rx="7" fill="#111827" stroke="#64748b" stroke-width="3"/>
        <rect x="10" y="13" width="56" height="58" rx="3" fill="#3b82f6"/>
        <path d="M19 24 H58 M19 37 H58 M19 50 H58 M19 63 H58" stroke="#bfdbfe" stroke-width="3"/>
        <text x="11" y="101" class="tiny" style="font-weight:800;fill:#e5fff2;">TMC</text>
      </g>
      <g transform="translate(118 0)">
        <rect x="0" y="0" width="76" height="112" rx="7" fill="#111827" stroke="#64748b" stroke-width="3"/>
        <rect x="10" y="13" width="56" height="58" rx="3" fill="#3b82f6"/>
        <path d="M19 24 H58 M19 37 H58 M19 50 H58 M19 63 H58" stroke="#bfdbfe" stroke-width="3"/>
        <text x="11" y="101" class="tiny" style="font-weight:800;fill:#e5fff2;">TMC</text>
      </g>
      <g transform="translate(236 0)">
        <rect x="0" y="0" width="76" height="112" rx="7" fill="#111827" stroke="#64748b" stroke-width="3"/>
        <rect x="10" y="13" width="56" height="58" rx="3" fill="#3b82f6"/>
        <path d="M19 24 H58 M19 37 H58 M19 50 H58 M19 63 H58" stroke="#bfdbfe" stroke-width="3"/>
        <text x="11" y="101" class="tiny" style="font-weight:800;fill:#e5fff2;">TMC</text>
      </g>
      <g transform="translate(354 0)">
        <rect x="0" y="0" width="76" height="112" rx="7" fill="#111827" stroke="#64748b" stroke-width="3"/>
        <rect x="10" y="13" width="56" height="58" rx="3" fill="#3b82f6"/>
        <path d="M19 24 H58 M19 37 H58 M19 50 H58 M19 63 H58" stroke="#bfdbfe" stroke-width="3"/>
        <text x="11" y="101" class="tiny" style="font-weight:800;fill:#e5fff2;">TMC</text>
      </g>
      <text x="0" y="151" class="small" style="fill:#e5fff2;">步进相线保持原接法</text>
    </g>

    <g transform="translate(656 256)">
      <rect x="-18" y="-18" width="98" height="178" rx="8" fill="none" stroke="#ef4444" stroke-width="7"/>
      <rect x="0" y="0" width="62" height="142" rx="7" fill="#171c23" stroke="#4b5563" stroke-width="3"/>
      <circle cx="31" cy="25" r="8" fill="#f8fafc"/>
      <circle cx="31" cy="55" r="8" fill="#f8fafc"/>
      <circle cx="31" cy="85" r="8" fill="#f8fafc"/>
      <circle cx="31" cy="115" r="8" fill="#f8fafc"/>
      <text x="-15" y="187" class="label" style="fill:#e5fff2;">USB 口旁 GND</text>
    </g>

    <g transform="translate(582 514)">
      <rect x="0" y="0" width="152" height="70" rx="12" fill="url(#metal)" stroke="#64748b" stroke-width="4"/>
      <rect x="26" y="15" width="100" height="40" rx="6" fill="#e5e7eb" stroke="#94a3b8" stroke-width="3"/>
      <rect x="63" y="23" width="30" height="24" rx="3" fill="#64748b"/>
      <text x="8" y="97" class="label" style="fill:#e5fff2;">USB</text>
    </g>
  </g>

  <!-- Relay module -->
  <g transform="translate(1060 300)" filter="url(#shadow)">
    <rect x="0" y="0" width="560" height="575" rx="28" fill="url(#relayPcb)"/>
    <text x="38" y="58" class="hWhite">1路继电器模块</text>
    <text x="38" y="96" class="small" style="fill:#fff7ed;">端子名称按实物丝印连接；此处按名称示意，不强行表示物理朝向</text>

    <rect x="50" y="140" width="205" height="318" rx="18" fill="#fff7ed" stroke="#fed7aa" stroke-width="4"/>
    <text x="82" y="182" class="label">控制端</text>
    <text x="80" y="215" class="tiny">图中按功能展开接线</text>
    <circle cx="91" cy="270" r="17" fill="#fff" stroke="#ca8a04" stroke-width="5"/>
    <text x="124" y="278" class="label">S 信号</text>
    <circle cx="91" cy="346" r="17" fill="#fff5ad" stroke="#ca8a04" stroke-width="5"/>
    <text x="124" y="354" class="label">DC+</text>
    <circle cx="91" cy="422" r="17" fill="#fff" stroke="#111827" stroke-width="5"/>
    <text x="124" y="430" class="label">DC-</text>

    <rect x="315" y="140" width="190" height="318" rx="18" fill="#fff7ed" stroke="#fed7aa" stroke-width="4"/>
    <text x="348" y="182" class="label">受控端</text>
    <text x="344" y="215" class="tiny">切 24V 正极</text>
    <circle cx="354" cy="270" r="17" fill="#fff" stroke="#64748b" stroke-width="5"/>
    <text x="389" y="278" class="label">NC 不接</text>
    <circle cx="354" cy="346" r="17" fill="#ffe4e6" stroke="#e11d27" stroke-width="5"/>
    <text x="389" y="354" class="label">COM</text>
    <circle cx="354" cy="422" r="17" fill="#ffedd5" stroke="#f97316" stroke-width="5"/>
    <text x="389" y="430" class="label">NO</text>

    <rect x="55" y="485" width="176" height="70" rx="12" fill="url(#relayBlue)" stroke="#0e7490" stroke-width="4"/>
    <text x="91" y="530" class="label" style="fill:#ffffff;">SONGLE</text>
    <rect x="312" y="493" width="155" height="56" rx="9" fill="#2563eb" stroke="#1e40af" stroke-width="4"/>
    <circle cx="348" cy="521" r="12" fill="#e0f2fe"/>
    <circle cx="390" cy="521" r="12" fill="#e0f2fe"/>
    <circle cx="432" cy="521" r="12" fill="#e0f2fe"/>
  </g>

  <!-- Motors -->
  <g transform="translate(1720 220)" filter="url(#shadow)">
    <rect x="0" y="0" width="795" height="985" rx="30" fill="#ffffff" stroke="#d5dde8" stroke-width="4"/>
    <text x="48" y="62" class="h">4 个带刹车 Z 步进电机</text>
    <text x="48" y="98" class="small">只画刹车两芯线；四芯相线仍接各自驱动口</text>
    <text x="48" y="132" class="small">刹车线圈并联：+ 接橙色母线，- 接黑色 24V V- / 0V 母线</text>

    <g transform="translate(46 180)">
      <rect x="0" y="0" width="700" height="145" rx="20" fill="#f8fafc" stroke="#cbd5e1" stroke-width="4"/>
      <text x="25" y="60" class="h" style="font-size:30px;">Z 前左</text><text x="25" y="100" class="small">刹车线圈</text>
      <rect x="245" y="30" width="130" height="86" rx="13" fill="url(#metal)" stroke="#64748b" stroke-width="4"/>
      <circle cx="310" cy="73" r="34" fill="#e5e7eb" stroke="#64748b" stroke-width="4"/><circle cx="310" cy="73" r="10" fill="#64748b"/>
      <rect x="390" y="42" width="75" height="62" rx="9" fill="#94a3b8" stroke="#64748b" stroke-width="4"/>
      <rect x="505" y="36" width="122" height="74" rx="10" fill="#ffffff" stroke="#94a3b8" stroke-width="4"/>
      <text x="526" y="66" class="tiny">线圈</text><text x="526" y="94" class="tiny">+ / -</text>
      <circle cx="625" cy="55" r="13" fill="#ffedd5" stroke="#f97316" stroke-width="5"/>
      <circle cx="685" cy="102" r="13" fill="#f8fafc" stroke="#111827" stroke-width="5"/>
    </g>
    <g transform="translate(46 385)">
      <rect x="0" y="0" width="700" height="145" rx="20" fill="#f8fafc" stroke="#cbd5e1" stroke-width="4"/>
      <text x="25" y="60" class="h" style="font-size:30px;">Z1 后左</text><text x="25" y="100" class="small">刹车线圈</text>
      <rect x="245" y="30" width="130" height="86" rx="13" fill="url(#metal)" stroke="#64748b" stroke-width="4"/>
      <circle cx="310" cy="73" r="34" fill="#e5e7eb" stroke="#64748b" stroke-width="4"/><circle cx="310" cy="73" r="10" fill="#64748b"/>
      <rect x="390" y="42" width="75" height="62" rx="9" fill="#94a3b8" stroke="#64748b" stroke-width="4"/>
      <rect x="505" y="36" width="122" height="74" rx="10" fill="#ffffff" stroke="#94a3b8" stroke-width="4"/>
      <text x="526" y="66" class="tiny">线圈</text><text x="526" y="94" class="tiny">+ / -</text>
      <circle cx="625" cy="55" r="13" fill="#ffedd5" stroke="#f97316" stroke-width="5"/>
      <circle cx="685" cy="102" r="13" fill="#f8fafc" stroke="#111827" stroke-width="5"/>
    </g>
    <g transform="translate(46 590)">
      <rect x="0" y="0" width="700" height="145" rx="20" fill="#f8fafc" stroke="#cbd5e1" stroke-width="4"/>
      <text x="25" y="60" class="h" style="font-size:30px;">Z2 后右</text><text x="25" y="100" class="small">刹车线圈</text>
      <rect x="245" y="30" width="130" height="86" rx="13" fill="url(#metal)" stroke="#64748b" stroke-width="4"/>
      <circle cx="310" cy="73" r="34" fill="#e5e7eb" stroke="#64748b" stroke-width="4"/><circle cx="310" cy="73" r="10" fill="#64748b"/>
      <rect x="390" y="42" width="75" height="62" rx="9" fill="#94a3b8" stroke="#64748b" stroke-width="4"/>
      <rect x="505" y="36" width="122" height="74" rx="10" fill="#ffffff" stroke="#94a3b8" stroke-width="4"/>
      <text x="526" y="66" class="tiny">线圈</text><text x="526" y="94" class="tiny">+ / -</text>
      <circle cx="625" cy="55" r="13" fill="#ffedd5" stroke="#f97316" stroke-width="5"/>
      <circle cx="685" cy="102" r="13" fill="#f8fafc" stroke="#111827" stroke-width="5"/>
    </g>
    <g transform="translate(46 795)">
      <rect x="0" y="0" width="700" height="145" rx="20" fill="#f8fafc" stroke="#cbd5e1" stroke-width="4"/>
      <text x="25" y="60" class="h" style="font-size:30px;">Z3 前右</text><text x="25" y="100" class="small">刹车线圈</text>
      <rect x="245" y="30" width="130" height="86" rx="13" fill="url(#metal)" stroke="#64748b" stroke-width="4"/>
      <circle cx="310" cy="73" r="34" fill="#e5e7eb" stroke="#64748b" stroke-width="4"/><circle cx="310" cy="73" r="10" fill="#64748b"/>
      <rect x="390" y="42" width="75" height="62" rx="9" fill="#94a3b8" stroke="#64748b" stroke-width="4"/>
      <rect x="505" y="36" width="122" height="74" rx="10" fill="#ffffff" stroke="#94a3b8" stroke-width="4"/>
      <text x="526" y="66" class="tiny">线圈</text><text x="526" y="94" class="tiny">+ / -</text>
      <circle cx="625" cy="55" r="13" fill="#ffedd5" stroke="#f97316" stroke-width="5"/>
      <circle cx="685" cy="102" r="13" fill="#f8fafc" stroke="#111827" stroke-width="5"/>
    </g>
  </g>

  <!-- Power supply -->
  <g transform="translate(80 1015)" filter="url(#shadow)">
    <rect x="0" y="0" width="820" height="285" rx="26" fill="#edf2f7" stroke="#cbd5e1" stroke-width="4"/>
    <text x="48" y="58" class="h">24V DC 刹车负载电源</text>
    <text x="48" y="94" class="small">只给刹车线圈供电：V+ 经 COM/NO 到线圈 +，V- 只回线圈 -</text>
    <rect x="470" y="100" width="280" height="78" rx="18" fill="#fff1f2" stroke="#e11d27" stroke-width="5"/>
    <text x="512" y="153" class="h" style="font-size:36px;fill:#e11d27;">V+ 24V</text>
    <circle cx="785" cy="139" r="20" fill="#fff1f2" stroke="#e11d27" stroke-width="6"/>
    <rect x="55" y="210" width="270" height="76" rx="18" fill="#f8fafc" stroke="#111827" stroke-width="5"/>
    <text x="104" y="262" class="h" style="font-size:36px;fill:#111827;">V- 0V</text>
    <circle cx="360" cy="248" r="20" fill="#f8fafc" stroke="#111827" stroke-width="6"/>
    <text x="400" y="232" class="small" style="fill:#9a3412;font-weight:700;">24V 电源不接继电器控制端 DC+ / DC-；</text>
    <text x="400" y="260" class="small" style="fill:#9a3412;font-weight:700;">继电器控制端由 M3B-2A 与 USB GND 供电。</text>
  </g>

  <!-- Wires -->
  <path class="stepper" d="M 494 424 C 525 535, 650 628, 890 690"/>
  <rect x="525" y="640" width="340" height="64" rx="17" fill="#e7fff0" stroke="#22c55e" stroke-width="4"/>
  <text x="555" y="666" class="label">原步进相线不改</text>
  <text x="555" y="694" class="tiny">只从 2A 并接一根信号线</text>

  <path class="signal" d="M 494 424 V 448 H 1010 V 570 H 1151"/>
  <path class="signal" d="M 494 424 V 448 H 1000 V 646 H 1151"/>
  <rect x="650" y="340" width="345" height="50" rx="24" fill="#fff7cc" stroke="#f4c430" stroke-width="4"/>
  <text x="674" y="373" class="tiny" style="font-size:20px;fill:#6b4e00;">M3B-2A → S 与 DC+</text>

  <path class="usbGnd" d="M 767 561 H 930 V 722 H 1151"/>
  <rect x="706" y="672" width="250" height="48" rx="24" fill="#ffffff" stroke="#475569" stroke-width="4"/>
  <text x="735" y="704" class="tiny" style="font-size:20px;fill:#334155;">USB GND → DC-</text>

  <path class="plus" d="M 865 1154 H 950 V 900 H 1320 V 646 H 1414"/>
  <rect x="935" y="858" width="250" height="50" rx="24" fill="#ffe4e6" stroke="#e11d27" stroke-width="4"/>
  <text x="967" y="891" class="tiny" style="font-size:20px;fill:#9f1239;">24V V+ → COM</text>

  <path class="brakePlus" d="M 1414 722 H 1700 V 455 H 2391"/>
  <path class="brakePlus" d="M 2391 455 V 1070"/>
  <circle cx="2391" cy="455" r="15" fill="#ffedd5" stroke="#f97316" stroke-width="5"/>
  <circle cx="2391" cy="660" r="15" fill="#ffedd5" stroke="#f97316" stroke-width="5"/>
  <circle cx="2391" cy="865" r="15" fill="#ffedd5" stroke="#f97316" stroke-width="5"/>
  <circle cx="2391" cy="1070" r="15" fill="#ffedd5" stroke="#f97316" stroke-width="5"/>
  <rect x="1640" y="390" width="310" height="50" rx="24" fill="#ffedd5" stroke="#f97316" stroke-width="4"/>
  <text x="1666" y="423" class="tiny" style="font-size:20px;fill:#9a3412;">NO → 刹车 + 母线</text>

  <path class="gnd" d="M 440 1263 V 1362 H 2451 V 502"/>
  <path class="gnd" d="M 2451 502 H 2451"/>
  <path class="gnd" d="M 2451 707 H 2451"/>
  <path class="gnd" d="M 2451 912 H 2451"/>
  <path class="gnd" d="M 2451 1117 H 2451"/>
  <circle cx="2451" cy="502" r="15" fill="#f8fafc" stroke="#111827" stroke-width="5"/>
  <circle cx="2451" cy="707" r="15" fill="#f8fafc" stroke="#111827" stroke-width="5"/>
  <circle cx="2451" cy="912" r="15" fill="#f8fafc" stroke="#111827" stroke-width="5"/>
  <circle cx="2451" cy="1117" r="15" fill="#f8fafc" stroke="#111827" stroke-width="5"/>
  <rect x="2020" y="1300" width="330" height="50" rx="24" fill="#ffffff" stroke="#111827" stroke-width="4"/>
  <text x="2048" y="1333" class="tiny" style="font-size:20px;fill:#111827;">刹车 - → 24V V-/0V</text>

  <g transform="translate(1005 940)" filter="url(#shadow)">
    <rect x="0" y="0" width="640" height="220" rx="22" fill="#ffffff" stroke="#cbd5e1" stroke-width="4"/>
    <text x="32" y="50" class="h" style="font-size:28px;">控制回路说明</text>
    <text x="32" y="88" class="small">M3B-2A 一分二：接继电器 S 与 DC+。</text>
    <text x="32" y="124" class="small">USB 口旁 GND：接继电器 DC-。</text>
    <text x="32" y="166" class="small" style="font-weight:800;fill:#9a3412;">注意：</text>
    <text x="96" y="166" class="small">USB GND 只作为继电器控制参考地，</text>
    <text x="32" y="198" class="small">刹车线圈电流不经过 USB GND，只走 24V V+/V- 回路。</text>
  </g>

  <g transform="translate(80 1386)">
    <rect x="0" y="0" width="2420" height="78" rx="22" fill="#edf2f7" stroke="#cbd5e1" stroke-width="4"/>
    <text x="34" y="34" class="small" style="font-weight:800;fill:#111827;">接线检查：</text>
    <text x="160" y="34" class="small">1. 断电接线；2. 确认刹车线圈是 24V；3. 继电器触点电流 ≥ 4 个刹车线圈总电流；4. 首次上电手托龙门测试释放/抱死。</text>
    <text x="34" y="64" class="small">24V 电源只用于刹车负载，不接继电器控制端；M8P 端口方向和继电器端子顺序以实物丝印为准。</text>
  </g>
</svg>
